<svg width="351" height="270" viewBox="0 0 351 270" fill="none" xmlns="http://www.w3.org/2000/svg">
<g filter="url(#filter0_d)">
<mask id="path-1-inside-1" fill="white">
<path fill-rule="evenodd" clip-rule="evenodd" d="M14 0C8.47715 0 4 4.47715 4 10V182C4 187.523 8.47716 192 14 192C8.47715 192 4 196.477 4 202V252C4 257.523 8.47716 262 14 262H337C342.523 262 347 257.523 347 252V202C347 196.477 342.523 192 337 192C342.523 192 347 187.523 347 182V10C347 4.47715 342.523 0 337 0H14Z"/>
</mask>
<path fill-rule="evenodd" clip-rule="evenodd" d="M14 0C8.47715 0 4 4.47715 4 10V182C4 187.523 8.47716 192 14 192C8.47715 192 4 196.477 4 202V252C4 257.523 8.47716 262 14 262H337C342.523 262 347 257.523 347 252V202C347 196.477 342.523 192 337 192C342.523 192 347 187.523 347 182V10C347 4.47715 342.523 0 337 0H14Z" fill="white"/>
<path d="M5 10C5 5.02943 9.02944 1 14 1V-1C7.92487 -1 3 3.92486 3 10H5ZM5 182V10H3V182H5ZM14 191C9.02944 191 5 186.971 5 182H3C3 188.075 7.92488 193 14 193V191ZM5 202C5 197.029 9.02944 193 14 193V191C7.92487 191 3 195.925 3 202H5ZM5 252V202H3V252H5ZM14 261C9.02944 261 5 256.971 5 252H3C3 258.075 7.92488 263 14 263V261ZM337 261H14V263H337V261ZM346 252C346 256.971 341.971 261 337 261V263C343.075 263 348 258.075 348 252H346ZM346 202V252H348V202H346ZM337 193C341.971 193 346 197.029 346 202H348C348 195.925 343.075 191 337 191V193ZM346 182C346 186.971 341.971 191 337 191V193C343.075 193 348 188.075 348 182H346ZM346 10V182H348V10H346ZM337 1C341.971 1 346 5.02944 346 10H348C348 3.92487 343.075 -1 337 -1V1ZM14 1H337V-1H14V1Z" fill="#DFE2F5" mask="url(#path-1-inside-1)"/>
</g>
<defs>
<filter id="filter0_d" x="0" y="0" width="351" height="270" filterUnits="userSpaceOnUse" color-interpolation-filters="sRGB">
<feFlood flood-opacity="0" result="BackgroundImageFix"/>
<feColorMatrix in="SourceAlpha" type="matrix" values="0 0 0 0 0 0 0 0 0 0 0 0 0 0 0 0 0 0 127 0"/>
<feOffset dy="4"/>
<feGaussianBlur stdDeviation="2"/>
<feColorMatrix type="matrix" values="0 0 0 0 0.262601 0 0 0 0 0.173542 0 0 0 0 0.408333 0 0 0 0.04 0"/>
<feBlend mode="normal" in2="BackgroundImageFix" result="effect1_dropShadow"/>
<feBlend mode="normal" in="SourceGraphic" in2="effect1_dropShadow" result="shape"/>
</filter>
</defs>
</svg>
