<svg width="12" height="13" viewBox="0 0 12 13" fill="none" xmlns="http://www.w3.org/2000/svg">
<path d="M6 0.470581C3.075 0.470581 0.75 2.79558 0.75 5.72058C0.75 7.14558 1.275 8.49558 2.325 9.47058C2.4 9.54558 5.4 12.2456 5.475 12.3206C5.775 12.5456 6.225 12.5456 6.45 12.3206C6.525 12.2456 9.6 9.54558 9.6 9.47058C10.65 8.49558 11.175 7.14558 11.175 5.72058C11.25 2.79558 8.925 0.470581 6 0.470581ZM6 7.22058C5.175 7.22058 4.5 6.54558 4.5 5.72058C4.5 4.89558 5.175 4.22058 6 4.22058C6.825 4.22058 7.5 4.89558 7.5 5.72058C7.5 6.54558 6.825 7.22058 6 7.22058Z" fill="#6A28FA"/>
</svg>
