<svg width="12" height="12" viewBox="0 0 12 12" fill="none" xmlns="http://www.w3.org/2000/svg">
<path d="M11.25 1.5H9.75V0H8.25V1.5H6.75V0H5.25V1.5H3.75V0H2.25V1.5H0.75C0.33525 1.5 0 1.83525 0 2.25V11.25C0 11.6648 0.33525 12 0.75 12H11.25C11.6648 12 12 11.6648 12 11.25V2.25C12 1.83525 11.6648 1.5 11.25 1.5ZM10.5 10.5H1.5V3.75H10.5V10.5Z" fill="#47FF43"/>
<path d="M4.5 5.25H3V6.75H4.5V5.25Z" fill="#47FF43"/>
<path d="M6.75 5.25H5.25V6.75H6.75V5.25Z" fill="#47FF43"/>
<path d="M4.5 7.5H3V9H4.5V7.5Z" fill="#47FF43"/>
<path d="M6.75 7.5H5.25V9H6.75V7.5Z" fill="#47FF43"/>
<path d="M9 5.25H7.5V6.75H9V5.25Z" fill="#47FF43"/>
<path d="M9 7.5H7.5V9H9V7.5Z" fill="#47FF43"/>
</svg>
