<svg width="30" height="30" viewBox="0 0 30 30" fill="none" xmlns="http://www.w3.org/2000/svg">
<path fill-rule="evenodd" clip-rule="evenodd" d="M30 15C30 6.71596 23.284 -1.01778e-06 15 -6.55671e-07C6.71596 -2.93564e-07 -1.01778e-06 6.71596 -6.55671e-07 15C-2.93564e-07 23.284 6.71596 30 15 30C23.284 30 30 23.284 30 15Z" fill="#FFEA31"/>
<path fill-rule="evenodd" clip-rule="evenodd" d="M12.4943 8.98788C12.4943 8.98788 7.36656 14.1036 7.31722 14.1463C7.07626 14.3545 6.92308 14.6584 6.92308 15C6.92308 15.3558 7.09003 15.6706 7.34877 15.8788C7.40442 15.9232 12.4943 21.0121 12.4943 21.0121C12.9424 21.4575 13.6693 21.4575 14.1168 21.0121C14.5648 20.5668 14.5648 19.8443 14.1168 19.3995L10.8386 16.1405L21.9238 16.1405C22.5606 16.1405 23.0769 15.6296 23.0769 15C23.0769 14.3699 22.5606 13.8595 21.9238 13.8595L10.8386 13.8595L14.1168 10.6005C14.5648 10.1557 14.5648 9.43324 14.1168 8.98788C13.6693 8.54251 12.9424 8.54251 12.4943 8.98788Z" fill="black"/>
</svg>
