<svg width="18" height="14" viewBox="0 0 18 14" fill="none" xmlns="http://www.w3.org/2000/svg">
<path fill-rule="evenodd" clip-rule="evenodd" d="M6.49434 0.987877C6.49434 0.987877 1.36656 6.10358 1.31722 6.14635C1.07626 6.35449 0.92308 6.65843 0.92308 7.00001C0.92308 7.35584 1.09003 7.67062 1.34877 7.87876C1.40442 7.92324 6.49434 13.0121 6.49434 13.0121C6.94241 13.4575 7.66929 13.4575 8.11678 13.0121C8.56485 12.5668 8.56485 11.8443 8.11678 11.3995L4.83863 8.1405L15.9238 8.1405C16.5606 8.1405 17.0769 7.62956 17.0769 7.00001C17.0769 6.36988 16.5606 5.85951 15.9238 5.85951L4.83863 5.85951L8.11678 2.60054C8.56485 2.15575 8.56485 1.43324 8.11678 0.987877C7.66929 0.542513 6.94241 0.542513 6.49434 0.987877Z" fill="black"/>
</svg>
