<svg width="38" height="38" viewBox="0 0 38 38" fill="none" xmlns="http://www.w3.org/2000/svg">
<path d="M30.875 26.125H7.91667C3.9881 26.125 0.791672 22.9286 0.791672 19C0.791672 15.9319 2.74687 13.2395 5.6128 12.2639C6.21776 5.78636 11.6454 0.791672 18.2083 0.791672C24.6132 0.791672 29.9987 5.62208 30.7672 11.9125C34.3938 12.2712 37.2083 15.313 37.2083 19C37.2083 22.4941 34.6594 25.469 31.2364 26.026C31.1282 26.0887 31.0053 26.125 30.875 26.125Z" fill="#999999"/>
<path d="M26.0504 26.5808C25.9201 26.3028 25.6407 26.125 25.3333 26.125H19.3777L22.1102 19.2942C22.2548 18.9324 22.1149 18.5195 21.7805 18.3201C21.4469 18.121 21.0167 18.194 20.767 18.4932L12.8503 27.9932C12.6535 28.229 12.611 28.5576 12.7413 28.8359C12.8715 29.1139 13.151 29.2917 13.4583 29.2917H19.414L16.6814 36.1225C16.5369 36.4843 16.6768 36.8972 17.0112 37.0966C17.1376 37.172 17.2775 37.2083 17.4163 37.2083C17.6447 37.2083 17.8697 37.1098 18.0247 36.9234L25.9414 27.4234C26.1382 27.1876 26.1807 26.8591 26.0504 26.5808Z" fill="#EFD358"/>
</svg>
