<svg width="16" height="16" viewBox="0 0 16 16" fill="none" xmlns="http://www.w3.org/2000/svg">
<g opacity="0.7" clip-path="url(#clip0)">
<path d="M8 6C6.89543 6 6 6.89543 6 8C6 9.10457 6.89543 10 8 10C9.10457 10 10 9.10457 10 8C10 6.89543 9.10457 6 8 6Z" fill="white"/>
<path d="M14 6C12.8954 6 12 6.89543 12 8C12 9.10457 12.8954 10 14 10C15.1046 10 16 9.10457 16 8C16 6.89543 15.1046 6 14 6Z" fill="white"/>
<path d="M2 6C0.895429 6 -1.22508e-06 6.89543 -1.12852e-06 8C-1.03196e-06 9.10457 0.89543 10 2 10C3.10457 10 4 9.10457 4 8C4 6.89543 3.10457 6 2 6Z" fill="white"/>
</g>
<defs>
<clipPath id="clip0">
<rect width="16" height="16" fill="white" transform="translate(16 16) rotate(180)"/>
</clipPath>
</defs>
</svg>
