<svg width="24" height="24" viewBox="0 0 24 24" fill="none" xmlns="http://www.w3.org/2000/svg">
<path d="M23 24C23.5523 24 24 23.5523 24 23V1C24 0.447715 23.5523 0 23 0H1C0.447715 0 0 0.447715 0 1V23C0 23.5523 0.447715 24 1 24H23Z" fill="#39579A"/>
<path d="M12.7596 23.9999V14.4999H9.5V10.9999H12.7596V8.41259C12.7596 5.3127 14.6529 3.62476 17.4182 3.62476C18.7428 3.62476 19.8812 3.72338 20.213 3.76746V7.00702L18.2951 7.00789C16.7912 7.00789 16.5 7.72253 16.5 8.77122V10.9999H20L19.5 14.4999H16.5V23.9999H12.7596Z" fill="white"/>
</svg>
