<svg width="16" height="15" viewBox="0 0 16 15" fill="none" xmlns="http://www.w3.org/2000/svg">
<path d="M14.1867 2.20001C13.8328 1.82064 13.4048 1.51813 12.929 1.31129C12.4533 1.10445 11.9401 0.997711 11.4213 0.997711C10.9026 0.997711 10.3894 1.10445 9.91363 1.31129C9.4379 1.51813 9.00981 1.82064 8.656 2.20001C8.39308 2.48545 8.17219 2.8069 8 3.15468C7.82772 2.80663 7.60635 2.48512 7.34266 2.20001C6.98864 1.82099 6.56049 1.51879 6.08478 1.31218C5.60907 1.10557 5.09597 0.998953 4.57733 0.998953C4.05869 0.998953 3.54559 1.10557 3.06988 1.31218C2.59417 1.51879 2.16602 1.82099 1.812 2.20001C1.07628 2.9867 0.666992 4.02357 0.666992 5.10068C0.666992 6.17779 1.07628 7.21465 1.812 8.00134L8 14.3333L14.1867 8.00268C14.9242 7.21666 15.3348 6.17923 15.3348 5.10135C15.3348 4.02346 14.9242 2.98603 14.1867 2.20001Z" fill="#FF3B30"/>
</svg>
