<svg width="24" height="24" viewBox="0 0 24 24" fill="none" xmlns="http://www.w3.org/2000/svg">
<path d="M12 0C8.741 0 8.3325 0.014 7.0525 0.072C5.1025 0.161 3.3895 0.6385 2.014 2.014C0.639 3.389 0.161 5.1015 0.072 7.0525C0.014 8.3325 0 8.741 0 12C0 15.259 0.014 15.6675 0.072 16.9475C0.161 18.8975 0.6385 20.6105 2.014 21.986C3.389 23.361 5.1015 23.839 7.0525 23.928C8.3325 23.986 8.741 24 12 24C15.259 24 15.6675 23.986 16.9475 23.928C18.897 23.839 20.6105 23.3615 21.986 21.986C23.361 20.611 23.839 18.8985 23.928 16.9475C23.986 15.6675 24 15.259 24 12C24 8.741 23.986 8.3325 23.928 7.0525C23.839 5.1025 23.3615 3.3895 21.986 2.014C20.611 0.639 18.8985 0.161 16.9475 0.072C15.6675 0.014 15.259 0 12 0Z" fill="#E02D69"/>
<path d="M12 5.4415C14.136 5.4415 14.389 5.4495 15.2325 5.488C16.143 5.5295 16.988 5.712 17.638 6.362C18.288 7.012 18.4705 7.857 18.512 8.7675C18.5505 9.611 18.5585 9.864 18.5585 12C18.5585 14.136 18.5505 14.389 18.512 15.2325C18.4705 16.143 18.288 16.988 17.638 17.638C16.988 18.288 16.143 18.4705 15.2325 18.512C14.389 18.5505 14.136 18.5585 12 18.5585C9.864 18.5585 9.611 18.5505 8.7675 18.512C7.857 18.4705 7.012 18.288 6.362 17.638C5.712 16.988 5.5295 16.143 5.488 15.2325C5.4495 14.389 5.4415 14.136 5.4415 12C5.4415 9.864 5.4495 9.611 5.488 8.7675C5.5295 7.857 5.712 7.012 6.362 6.362C7.012 5.712 7.857 5.5295 8.7675 5.488C9.611 5.4495 9.864 5.4415 12 5.4415ZM12 4C9.8275 4 9.555 4.009 8.7015 4.048C7.4015 4.1075 6.2595 4.426 5.3425 5.3425C4.426 6.259 4.1075 7.401 4.048 8.7015C4.009 9.555 4 9.8275 4 12C4 14.1725 4.009 14.445 4.048 15.2985C4.1075 16.5985 4.426 17.7405 5.3425 18.6575C6.259 19.574 7.401 19.8925 8.7015 19.952C9.555 19.991 9.8275 20 12 20C14.1725 20 14.445 19.991 15.2985 19.952C16.5985 19.8925 17.7405 19.574 18.6575 18.6575C19.574 17.741 19.8925 16.599 19.952 15.2985C19.991 14.445 20 14.1725 20 12C20 9.8275 19.991 9.555 19.952 8.7015C19.8925 7.4015 19.574 6.2595 18.6575 5.3425C17.741 4.426 16.599 4.1075 15.2985 4.048C14.445 4.009 14.1725 4 12 4Z" fill="white"/>
<path d="M12 7.89209C9.731 7.89209 7.892 9.73159 7.892 12.0001C7.892 14.2686 9.7315 16.1081 12 16.1081C14.2685 16.1081 16.108 14.2686 16.108 12.0001C16.108 9.73159 14.269 7.89209 12 7.89209ZM12 14.6666C10.527 14.6666 9.3335 13.4726 9.3335 12.0001C9.3335 10.5271 10.5275 9.33359 12 9.33359C13.473 9.33359 14.6665 10.5276 14.6665 12.0001C14.6665 13.4731 13.473 14.6666 12 14.6666Z" fill="white"/>
<path d="M16.2705 8.68953C16.8007 8.68953 17.2305 8.25972 17.2305 7.72953C17.2305 7.19934 16.8007 6.76953 16.2705 6.76953C15.7403 6.76953 15.3105 7.19934 15.3105 7.72953C15.3105 8.25972 15.7403 8.68953 16.2705 8.68953Z" fill="white"/>
</svg>
