<svg width="24" height="24" viewBox="0 0 24 24" fill="none" xmlns="http://www.w3.org/2000/svg">
<path d="M17.109 4.5H20.5C22.157 4.5 23.5 5.843 23.5 7.5V20.5C23.5 22.157 22.157 23.5 20.5 23.5H4.5C2.843 23.5 1.5 22.157 1.5 20.5V7.5C1.5 5.843 2.843 4.5 4.5 4.5H7.891" stroke="white" stroke-width="1.5" stroke-miterlimit="10" stroke-linecap="round" stroke-linejoin="round"/>
<path d="M19.5 10.5V19.5H5.5V10.5" stroke="white" stroke-width="1.5" stroke-miterlimit="10" stroke-linecap="round" stroke-linejoin="round"/>
<path d="M17.5 6.5C17.5 9.586 12.5 14.625 12.5 14.625C12.5 14.625 7.5 9.586 7.5 6.5C7.5 3.336 10.084 1.5 12.5 1.5C14.916 1.5 17.5 3.336 17.5 6.5Z" stroke="white" stroke-width="1.5" stroke-miterlimit="10" stroke-linecap="round" stroke-linejoin="round"/>
<path d="M12.5 7.5C13.0523 7.5 13.5 7.05228 13.5 6.5C13.5 5.94772 13.0523 5.5 12.5 5.5C11.9477 5.5 11.5 5.94772 11.5 6.5C11.5 7.05228 11.9477 7.5 12.5 7.5Z" fill="white"/>
</svg>
