<svg width="10" height="20" viewBox="0 0 10 20" fill="none" xmlns="http://www.w3.org/2000/svg">
<path d="M6.25 9V5.125C7 5.375 7.5 6.125 7.5 6.875C7.5 7.625 8 8.125 8.75 8.125C9.5 8.125 10 7.625 10 6.875C10 4.625 8.375 2.875 6.25 2.625V1.25C6.25 0.5 5.75 0 5 0C4.25 0 3.75 0.5 3.75 1.25V2.625C1.625 2.875 0 4.625 0 6.875C0 9.5 2 10.5 3.75 11V14.875C3 14.625 2.5 13.875 2.5 13.125C2.5 12.375 2 11.875 1.25 11.875C0.5 11.875 0 12.375 0 13.125C0 15.375 1.625 17.125 3.75 17.375V18.75C3.75 19.5 4.25 20 5 20C5.75 20 6.25 19.5 6.25 18.75V17.375C8.375 17.125 10 15.25 10 13.125C10 10.5 8 9.5 6.25 9ZM2.5 6.875C2.5 6 3 5.375 3.75 5.125V8.375C2.875 8 2.5 7.625 2.5 6.875ZM6.25 14.875V11.625C7.125 12 7.5 12.375 7.5 13.125C7.5 14 7 14.625 6.25 14.875Z" fill="#6A28FA"/>
</svg>
