<svg width="20" height="20" viewBox="0 0 20 20" fill="none" xmlns="http://www.w3.org/2000/svg">
<path d="M9.435 11.9375L10.2275 9.68125C9.40774 9.43103 8.62089 9.08356 7.88375 8.64625C8.43318 8.03676 8.89933 7.35708 9.27 6.625C9.65901 5.86113 9.94645 5.04967 10.125 4.21125C10.8613 4.21125 11.3488 4.23625 11.8988 4.28625V2.025C11.2969 2.09004 10.6916 2.11926 10.0863 2.1125H7.10875V1.35C7.10832 1.09397 7.13344 0.838538 7.18375 0.5875H4.6725C4.72402 0.842576 4.74916 1.10228 4.7475 1.3625V2.1125H1.98625C1.38131 2.11893 0.776507 2.08971 0.175 2.025V4.28625C0.8 4.23625 1.22375 4.21125 1.96125 4.21125C2.17318 4.95156 2.46227 5.66757 2.82375 6.3475C3.26018 7.17576 3.80175 7.9442 4.435 8.63375C3.06339 9.4336 1.56243 9.98736 0 10.27C0.525518 10.9315 0.931221 11.6799 1.19875 12.4812C2.97638 12.0063 4.6589 11.2287 6.1725 10.1825C7.18035 10.9048 8.27683 11.4946 9.435 11.9375ZM4.36 4.21125H7.67125C7.40524 5.3313 6.86875 6.36907 6.10875 7.23375C5.28415 6.3869 4.68318 5.34821 4.36 4.21125Z" fill="#6A28FA"/>
<path d="M17.1463 20L16.24 17.0263H11.6863L10.78 20H7.92627L12.335 7.45625H15.5738L20 20H17.1463ZM15.6075 14.805C14.7742 12.11 14.3029 10.5863 14.1938 10.2338C14.0888 9.88 14.0125 9.60125 13.9675 9.39625C13.7792 10.1246 13.2409 11.9275 12.3525 14.805H15.6075Z" fill="#6A28FA"/>
</svg>
