<svg width="60" height="60" viewBox="0 0 60 60" fill="none" xmlns="http://www.w3.org/2000/svg">
<path d="M57.5734 18.3329C56.0633 14.7584 53.9045 11.5477 51.1528 8.79309C48.401 6.03637 45.1982 3.87361 41.6281 2.36075C37.9333 0.794089 34.0088 0 29.9639 0C25.919 0 21.9966 0.794089 18.2997 2.36075C14.7317 3.87361 11.5267 6.03637 8.77714 8.79309C6.02543 11.5477 3.86444 14.7584 2.35647 18.3329C0.79265 22.0365 0 25.9682 0 30.0183C0 34.0684 0.79265 38.0001 2.35647 41.7037C3.86658 45.2782 6.02543 48.489 8.77714 51.2435C10.6095 53.0792 12.6416 54.6501 14.8498 55.9435L18.8517 50.5226C16.8927 49.4552 15.099 48.1124 13.5008 46.5113C11.3613 44.3679 9.6815 41.8737 8.50863 39.0955C7.29495 36.2225 6.6806 33.1667 6.6806 30.0161C6.6806 26.8656 7.29495 23.8098 8.50863 20.9368C9.6815 18.1586 11.3613 15.6644 13.5008 13.521C15.6382 11.3798 18.13 9.69693 20.901 8.52194C23.7687 7.30605 26.8191 6.69058 29.9639 6.69058C33.1087 6.69058 36.159 7.30605 39.0267 8.52194C41.7999 9.69693 44.2896 11.3798 46.4291 13.5232C48.5686 15.6666 50.2484 18.1608 51.4213 20.939C53.303 25.398 53.6467 30.3971 52.5898 35.1056C51.4685 40.0983 48.7619 43.9482 45.746 47.9445C44.717 49.3089 43.6709 50.6582 42.657 52.0333C42.0169 52.9006 41.3746 53.77 40.7345 54.6372L39.7313 55.9973C39.4972 56.3158 39.263 56.6321 39.0267 56.9506L37.4414 59.0962C38.8635 58.7303 40.2619 58.2569 41.6281 57.678C45.1961 56.1651 48.401 54.0024 51.1506 51.2457C53.9023 48.489 56.0612 45.2803 57.5713 41.7058C59.1351 38.0022 59.9277 34.0705 59.9277 30.0205C59.9277 25.9704 59.1351 22.0365 57.5734 18.3329Z" fill="#6A28FA"/>
<path d="M43.9415 38.9125C44.775 37.5804 45.413 36.2914 45.8641 34.7828C46.3259 33.2398 46.5558 31.6301 46.5558 30.0183C46.5558 27.7759 46.1176 25.5981 45.2497 23.5472C44.4141 21.5674 43.2176 19.7898 41.6946 18.264C40.1716 16.7383 38.3973 15.5417 36.421 14.7025C34.3739 13.8352 32.2 13.394 29.9617 13.394C27.7234 13.394 25.5495 13.8331 23.5023 14.7025C21.5261 15.5396 19.7518 16.7383 18.2288 18.264C16.7057 19.7898 15.5093 21.5674 14.6736 23.5472C13.808 25.5981 13.3676 27.7759 13.3676 30.0183C13.3676 32.2607 13.8058 34.4385 14.6736 36.4893C15.5093 38.4692 16.7057 40.2467 18.2288 41.7725C19.7518 43.2983 21.5261 44.497 23.5023 45.3341C25.5495 46.2013 27.7234 46.6425 29.9617 46.6425C29.981 46.6425 30.0025 46.6425 30.0218 46.6425L25.3991 52.9027C25.3991 52.9027 25.3991 52.9027 25.397 52.9027L21.1158 58.7066C23.4959 59.4448 25.9555 59.8773 28.4666 60C30.082 57.8114 31.6974 55.6228 33.3127 53.4364C35.1622 50.9314 37.0268 48.4373 38.8785 45.9345C40.5926 43.6168 42.4099 41.3636 43.9415 38.9125ZM37.8903 35.9836C37.6111 36.3538 37.306 36.7067 36.9731 37.0403C35.0999 38.9168 32.6124 39.9498 29.9638 39.9498C27.3152 39.9498 24.8277 38.9168 22.9546 37.0403C21.0814 35.1637 20.0503 32.6717 20.0503 30.0183C20.0503 27.3649 21.0814 24.8728 22.9546 22.9963C24.8277 21.1197 27.3152 20.0868 29.9638 20.0868C32.6124 20.0868 35.0999 21.1197 36.9731 22.9963C38.8462 24.8728 39.8773 27.3649 39.8773 30.0183C39.8773 32.138 39.2179 34.1566 37.9977 35.8394L37.8903 35.9836Z" fill="#6A28FA"/>
</svg>
