<svg width="35" height="38" viewBox="0 0 35 38" fill="none" xmlns="http://www.w3.org/2000/svg">
<path d="M20.393 5.95258C20.1171 5.67572 19.7722 5.53728 19.3497 5.53728C18.7288 5.53728 18.2804 5.83145 17.9959 6.42845C17.3923 5.71033 16.5645 5.35559 15.5125 5.35559C14.2536 5.35559 13.193 5.84011 12.3307 6.81779C11.4684 7.79547 11.0459 8.98946 11.0459 10.3911C11.0459 11.7927 11.477 12.9867 12.3307 13.9644C13.193 14.9421 14.2536 15.4266 15.5125 15.4266C16.5645 15.4266 17.3923 15.0719 17.9959 14.3537C18.2804 14.9507 18.7288 15.2449 19.3497 15.2449C19.7722 15.2449 20.1171 15.1065 20.393 14.8209C20.6689 14.5441 20.7983 14.198 20.7983 13.7913V6.96487C20.8069 6.57553 20.6689 6.22945 20.393 5.95258ZM17.3837 12.0782C17.0301 12.5368 16.5472 12.7618 15.9264 12.7618C15.3056 12.7618 14.8227 12.5368 14.4691 12.0782C14.1156 11.6197 13.9432 11.0573 13.9432 10.3824C13.9432 9.70758 14.1156 9.14519 14.4691 8.68663C14.8227 8.22807 15.3056 8.00312 15.9264 8.00312C16.5472 8.00312 17.0301 8.22807 17.3837 8.68663C17.7372 9.14519 17.9096 9.70758 17.9096 10.3824C17.9096 11.0659 17.7286 11.6283 17.3837 12.0782Z" fill="#178AE1"/>
<path d="M24.0831 15.0373C23.8072 15.3141 23.4623 15.4612 23.0484 15.4612C22.6258 15.4612 22.2809 15.3228 22.005 15.0373C21.7291 14.7604 21.5997 14.4143 21.5997 14.0077V1.44489C21.5997 1.03825 21.7377 0.700817 22.005 0.415299C22.2809 0.138433 22.6258 0 23.0484 0C23.4709 0 23.8158 0.138433 24.0831 0.415299C24.359 0.692165 24.4884 1.03825 24.4884 1.44489V14.0077C24.4884 14.4143 24.3504 14.7518 24.0831 15.0373Z" fill="#178AE1"/>
<path d="M33.6634 6.81779C32.7321 5.84011 31.5508 5.35559 30.1194 5.35559C28.688 5.35559 27.5153 5.84011 26.6013 6.80048C25.6959 7.76086 25.2389 8.9635 25.2389 10.3911C25.2389 11.8187 25.6959 13.0213 26.6013 13.9817C27.5067 14.9507 28.6794 15.4266 30.1194 15.4266C31.5508 15.4266 32.7321 14.9421 33.6634 13.9644C34.5515 13.0127 34.9999 11.8187 34.9999 10.3911C34.9999 8.9635 34.5602 7.76952 33.6634 6.81779ZM31.5767 12.0782C31.2231 12.5368 30.7402 12.7618 30.1194 12.7618C29.4986 12.7618 29.0157 12.5368 28.6621 12.0782C28.3086 11.6197 28.1362 11.0573 28.1362 10.3824C28.1362 9.70758 28.3086 9.14519 28.6621 8.68663C29.0157 8.22807 29.4986 8.00312 30.1194 8.00312C30.7402 8.00312 31.2231 8.22807 31.5767 8.68663C31.9302 9.14519 32.1026 9.70758 32.1026 10.3824C32.1113 11.0659 31.9302 11.6283 31.5767 12.0782Z" fill="#178AE1"/>
<path d="M9.44196 5.69314C10.4681 4.36937 10.9768 3.47821 10.9768 3.01965C10.9768 1.95545 10.3129 1.42767 8.97633 1.42767H1.94875C1.39689 1.42767 0.965753 1.55745 0.663955 1.81702C0.362158 2.07658 0.206947 2.42266 0.206947 2.83796C0.206947 3.25326 0.362158 3.59934 0.663955 3.8589C0.965753 4.11846 1.39689 4.24825 1.94875 4.24825H6.77752L0.603596 12.2601C0.198324 12.7878 0 13.2464 0 13.653C0 14.8211 0.767429 15.4008 2.30229 15.4008H9.54544C10.7009 15.4008 11.2786 14.9162 11.2786 13.9386C11.2786 12.9609 10.7009 12.4764 9.54544 12.4764H4.21655L9.44196 5.69314Z" fill="#178AE1"/>
<path d="M6.11364 23.8711H4.20801V27.8424H6.11364C6.68275 27.8424 7.14838 27.652 7.50191 27.28C7.85545 26.908 8.03652 26.4321 8.03652 25.8524C8.03652 25.2814 7.85545 24.8055 7.50191 24.4248C7.14838 24.0614 6.69137 23.8711 6.11364 23.8711Z" fill="#1FC32C"/>
<path d="M15.6159 27.7645C15.0123 27.7645 14.5381 27.9894 14.1931 28.4307C13.8482 28.8806 13.6758 29.4257 13.6758 30.0832C13.6758 30.7408 13.8482 31.2945 14.1931 31.7358C14.5381 32.177 15.0123 32.402 15.6159 32.402C16.2195 32.402 16.6938 32.177 17.0387 31.7358C17.3836 31.2859 17.556 30.7408 17.556 30.0832C17.556 29.4257 17.3836 28.8719 17.0387 28.4307C16.7024 27.9808 16.2195 27.7645 15.6159 27.7645Z" fill="#1FC32C"/>
<path d="M29.1451 18.1953H1.6642C0.741562 18.1953 0 18.948 0 19.8652V36.1051C0 37.0308 0.750185 37.7749 1.6642 37.7749H23.2643C23.0315 37.5586 22.9194 37.2991 22.9194 37.0049C22.9194 36.7626 22.9711 36.5117 23.0832 36.2522L24.1093 33.9594L21.2638 26.8387C21.1776 26.6397 21.1345 26.4148 21.1345 26.1725C21.1345 25.861 21.2638 25.6015 21.5311 25.3852C21.7898 25.1689 22.0657 25.065 22.3503 25.065C22.9798 25.065 23.4109 25.3679 23.6351 25.9822L25.4028 30.8446L27.2998 25.9822C27.5412 25.3679 28.0413 25.065 28.6622 25.065C28.9467 25.065 29.2227 25.1689 29.4813 25.3852C29.74 25.6015 29.878 25.861 29.878 26.1725C29.878 26.4148 29.8349 26.6311 29.7487 26.8387L25.4631 37.1001C25.351 37.3856 25.2131 37.6105 25.0492 37.7749H29.1364C30.0591 37.7749 30.8006 37.0222 30.8006 36.1051V19.8652C30.8179 18.9394 30.0677 18.1953 29.1451 18.1953ZM9.57131 29.1142C8.70041 29.9102 7.60531 30.3168 6.28602 30.3168H4.21655V33.5441C4.21655 34.0026 4.08721 34.366 3.82852 34.6256C3.56984 34.8851 3.23355 35.0063 2.81966 35.0063C2.40576 35.0063 2.06947 34.8765 1.81079 34.6256C1.5521 34.366 1.42276 34.0113 1.42276 33.5441V22.8588C1.42276 21.8811 1.90564 21.3966 2.88001 21.3966H6.17392C7.55357 21.3966 8.7004 21.8119 9.59718 22.6425C10.5026 23.4731 10.951 24.5546 10.951 25.8783C10.951 27.2108 10.4939 28.2923 9.57131 29.1142ZM20.3843 33.4143C20.3843 33.8123 20.255 34.1411 19.9876 34.4179C19.7203 34.6948 19.3841 34.8246 18.9702 34.8246C18.3666 34.8246 17.9268 34.5304 17.6509 33.9507C17.0559 34.6515 16.2454 34.9976 15.2192 34.9976C13.9862 34.9976 12.9514 34.5217 12.1064 33.57C11.27 32.6183 10.8475 31.2945 10.8475 29.9275C10.8475 28.5518 11.27 27.3925 12.1064 26.4321C12.9428 25.4803 13.9862 25.0045 15.2192 25.0045C16.2454 25.0045 17.0559 25.3506 17.6509 26.0514C17.9268 25.4717 18.3666 25.1775 18.9702 25.1775C19.3841 25.1775 19.7203 25.316 19.9876 25.5842C20.255 25.861 20.3843 26.1898 20.3843 26.5878V33.4143Z" fill="#1FC32C"/>
</svg>
