<svg width="23" height="24" viewBox="0 0 23 24" fill="none" xmlns="http://www.w3.org/2000/svg">
<path d="M13.5 6.38635H17.5" stroke="#8F8E94" stroke-width="1.5" stroke-miterlimit="10" stroke-linecap="round" stroke-linejoin="round"/>
<path d="M13.5 10.2955H17.5" stroke="#8F8E94" stroke-width="1.5" stroke-miterlimit="10" stroke-linecap="round" stroke-linejoin="round"/>
<path d="M5.5 14.2045H17.5" stroke="#8F8E94" stroke-width="1.5" stroke-miterlimit="10" stroke-linecap="round" stroke-linejoin="round"/>
<path d="M5.5 18.1136H17.5" stroke="#8F8E94" stroke-width="1.5" stroke-miterlimit="10" stroke-linecap="round" stroke-linejoin="round"/>
<path d="M19.5 23H3.5C2.96957 23 2.46086 22.7941 2.08579 22.4275C1.71071 22.061 1.5 21.5638 1.5 21.0455V3.45455C1.5 2.93617 1.71071 2.43902 2.08579 2.07247C2.46086 1.70592 2.96957 1.5 3.5 1.5H19.5C20.0304 1.5 20.5391 1.70592 20.9142 2.07247C21.2893 2.43902 21.5 2.93617 21.5 3.45455V21.0455C21.5 21.5638 21.2893 22.061 20.9142 22.4275C20.5391 22.7941 20.0304 23 19.5 23Z" stroke="#8F8E94" stroke-width="1.5" stroke-miterlimit="10" stroke-linecap="round" stroke-linejoin="round"/>
<path d="M9.5 6.38635H5.5V10.2954H9.5V6.38635Z" stroke="#8F8E94" stroke-width="1.5" stroke-miterlimit="10" stroke-linecap="round" stroke-linejoin="round"/>
</svg>
