<svg width="24" height="24" viewBox="0 0 24 24" fill="none" xmlns="http://www.w3.org/2000/svg">
<path d="M11.75 23C17.6871 23 22.5 18.1871 22.5 12.25C22.5 6.31294 17.6871 1.5 11.75 1.5C5.81294 1.5 1 6.31294 1 12.25C1 18.1871 5.81294 23 11.75 23Z" stroke="#8F8E94" stroke-width="1.5" stroke-miterlimit="10" stroke-linecap="round" stroke-linejoin="round"/>
<path d="M11.7099 19.0909C12.2497 19.0909 12.6872 18.6534 12.6872 18.1136C12.6872 17.5739 12.2497 17.1364 11.7099 17.1364C11.1702 17.1364 10.7327 17.5739 10.7327 18.1136C10.7327 18.6534 11.1702 19.0909 11.7099 19.0909Z" fill="#8F8E94"/>
<path d="M9.61176 6.93364C11.5468 6.07853 14.0505 6.18016 14.9056 7.56398C15.7608 8.9478 15.1705 10.5574 13.7046 11.7995C12.2387 13.0416 11.71 13.7159 11.71 14.6932" stroke="#8F8E94" stroke-width="1.5" stroke-miterlimit="10" stroke-linecap="round" stroke-linejoin="round"/>
</svg>
