<svg width="24" height="18" viewBox="0 0 24 18" fill="none" xmlns="http://www.w3.org/2000/svg">
<path d="M20.0682 9.25C20.0682 7.60312 21.3386 6.34375 23 6.34375V1.5H1.5V6.34375C3.16136 6.34375 4.43182 7.60312 4.43182 9.25C4.43182 10.8969 3.16136 12.1562 1.5 12.1562V17H23V12.1562C21.3386 12.1562 20.0682 10.8969 20.0682 9.25Z" stroke="#370B7F" stroke-width="1.5" stroke-miterlimit="10" stroke-linecap="round" stroke-linejoin="round"/>
<path d="M15.1818 6.34375L9.31818 12.1562" stroke="#370B7F" stroke-width="1.5" stroke-miterlimit="10" stroke-linecap="round" stroke-linejoin="round"/>
<path d="M9.80679 7.3125C10.6164 7.3125 11.2727 6.66191 11.2727 5.85938C11.2727 5.05684 10.6164 4.40625 9.80679 4.40625C8.99719 4.40625 8.34088 5.05684 8.34088 5.85938C8.34088 6.66191 8.99719 7.3125 9.80679 7.3125Z" fill="#370B7F"/>
<path d="M14.6932 14.0938C15.5028 14.0938 16.1591 13.4432 16.1591 12.6406C16.1591 11.8381 15.5028 11.1875 14.6932 11.1875C13.8836 11.1875 13.2273 11.8381 13.2273 12.6406C13.2273 13.4432 13.8836 14.0938 14.6932 14.0938Z" fill="#370B7F"/>
</svg>
