<svg width="23" height="23" viewBox="0 0 23 23" fill="none" xmlns="http://www.w3.org/2000/svg">
<path d="M18.85 14.65L22 11.5L18.85 8.35V4.15H14.65L11.5 1L8.35 4.15H4.15V8.35L1 11.5L4.15 14.65V18.85H8.35L11.5 22L14.65 18.85H18.85V14.65Z" stroke="#370B7F" stroke-width="1.5" stroke-miterlimit="10" stroke-linecap="round" stroke-linejoin="round"/>
<path d="M14.65 8.35001L8.34998 14.65" stroke="#370B7F" stroke-width="1.5" stroke-miterlimit="10" stroke-linecap="round" stroke-linejoin="round"/>
<path d="M8.87499 10.45C9.74484 10.45 10.45 9.74484 10.45 8.87499C10.45 8.00514 9.74484 7.29999 8.87499 7.29999C8.00514 7.29999 7.29999 8.00514 7.29999 8.87499C7.29999 9.74484 8.00514 10.45 8.87499 10.45Z" fill="#370B7F"/>
<path d="M14.125 15.7C14.9948 15.7 15.7 14.9948 15.7 14.125C15.7 13.2551 14.9948 12.55 14.125 12.55C13.2551 12.55 12.55 13.2551 12.55 14.125C12.55 14.9948 13.2551 15.7 14.125 15.7Z" fill="#370B7F"/>
</svg>
